# WaveFront *.obj file (generated by Autodesk ATF)

mtllib CardDeck.mtl

g Solid1

v 0.000000 0.000000 -860.000000
v 0.000000 0.000000 0.000000
v 0.000000 500.000000 -860.000000
v 0.000000 500.000000 0.000000
v 1321.999969 0.000000 -860.000000
v 1321.999969 0.000000 0.000000
v 1321.999969 500.000000 -860.000000
v 1321.999969 500.000000 0.000000
vt 0.000000 0.000000 0.000000
vt 86.000000 0.000000 0.000000
vt 86.000000 50.000000 0.000000
vt 0.000000 50.000000 0.000000
vt 0.000000 0.000000 0.000000
vt 132.199997 0.000000 0.000000
vt 132.199997 50.000000 0.000000
vt 0.000000 50.000000 0.000000
vt 0.000000 0.000000 0.000000
vt 86.000000 0.000000 0.000000
vt 86.000000 50.000000 0.000000
vt 0.000000 50.000000 0.000000
vt 0.000000 0.000000 0.000000
vt 132.199997 0.000000 0.000000
vt 132.199997 50.000000 0.000000
vt 0.000000 50.000000 0.000000
vt 43.000000 -66.099998 0.000000
vt 43.000000 66.099998 0.000000
vt -43.000000 66.099998 0.000000
vt -43.000000 -66.099998 0.000000
vt -43.000000 66.099998 0.000000
vt -43.000000 -66.099998 0.000000
vt 43.000000 -66.099998 0.000000
vt 43.000000 66.099998 0.000000
vn -0.100000 0.000000 0.000000
vn -0.100000 0.000000 0.000000
vn -0.100000 0.000000 0.000000
vn -0.100000 0.000000 0.000000
vn 0.000000 0.000000 -0.100000
vn 0.000000 0.000000 -0.100000
vn 0.000000 0.000000 -0.100000
vn 0.000000 0.000000 -0.100000
vn 0.100000 0.000000 0.000000
vn 0.100000 0.000000 0.000000
vn 0.100000 0.000000 0.000000
vn 0.100000 0.000000 0.000000
vn 0.000000 0.000000 0.100000
vn 0.000000 0.000000 0.100000
vn 0.000000 0.000000 0.100000
vn 0.000000 0.000000 0.100000
vn 0.000000 0.100000 0.000000
vn 0.000000 0.100000 0.000000
vn 0.000000 0.100000 0.000000
vn 0.000000 0.100000 0.000000
vn 0.000000 -0.100000 0.000000
vn 0.000000 -0.100000 0.000000
vn 0.000000 -0.100000 0.000000
vn 0.000000 -0.100000 0.000000
usemtl 191,191,191
f 1/1/1 2/2/2 3/4/4
f 3/4/4 2/2/2 4/3/3
f 5/5/5 1/6/6 7/8/8
f 7/8/8 1/6/6 3/7/7
f 6/9/9 5/10/10 8/12/12
f 8/12/12 5/10/10 7/11/11
f 2/13/13 6/14/14 4/16/16
f 4/16/16 6/14/14 8/15/15
f 8/18/18 7/19/19 4/17/17
f 4/17/17 7/19/19 3/20/20
f 2/22/22 1/23/23 6/21/21
f 6/21/21 1/23/23 5/24/24

# 8 vertices
# 24 texture params
# 24 normals
# 12 facets

# 1 groups
